<svg xmlns="http://www.w3.org/2000/svg" width="487" height="125" viewBox="0 0 487 125" version="1.1"><path d="M110.7 62.2c0 10.4-1.9 19.4-5.8 26.9 -3.8 7.5-8.9 13.7-15.2 18.6 -6.3 4.9-13.4 8.4-21.3 10.7 -7.9 2.3-16 3.4-24.1 3.4l-44.2 0 0-118.6 42.9 0c8.4 0 16.6 1 24.8 2.9 8.1 2 15.4 5.2 21.8 9.7 6.4 4.5 11.5 10.6 15.4 18.2 3.9 7.6 5.9 17 5.9 28.2ZM80.9 62.2c0-6.7-1.1-12.3-3.3-16.7 -2.2-4.4-5.1-7.9-8.7-10.6 -3.6-2.6-7.8-4.5-12.4-5.6 -4.6-1.1-9.4-1.7-14.3-1.7l-14.2 0 0 69.4 13.6 0c5.1 0 10.1-0.6 14.8-1.8 4.7-1.2 8.9-3.1 12.6-5.8 3.6-2.7 6.5-6.3 8.7-10.7 2.2-4.5 3.3-10 3.3-16.6ZM253.1 62c0 9.4-1.6 18-4.9 25.7 -3.2 7.8-7.7 14.4-13.5 19.9 -5.7 5.5-12.6 9.8-20.5 12.8 -7.9 3-16.5 4.5-25.8 4.5 -9.3 0-17.8-1.5-25.7-4.5 -7.9-3-14.7-7.3-20.4-12.8 -5.7-5.5-10.2-12.2-13.5-19.9 -3.2-7.8-4.9-16.3-4.9-25.7 0-9.5 1.6-18.1 4.9-25.7 3.2-7.7 7.7-14.2 13.5-19.5 5.7-5.4 12.6-9.5 20.4-12.4 7.9-2.9 16.4-4.4 25.7-4.4 9.3 0 17.9 1.5 25.8 4.4 7.9 2.9 14.8 7 20.5 12.4 5.7 5.4 10.2 11.9 13.5 19.5 3.2 7.7 4.9 16.2 4.9 25.7ZM222.5 62c0-5.1-0.8-9.9-2.5-14.4 -1.7-4.5-4-8.3-6.9-11.5 -3-3.2-6.5-5.7-10.7-7.5 -4.2-1.8-8.8-2.8-13.8-2.8 -5 0-9.6 0.9-13.7 2.8 -4.1 1.8-7.7 4.4-10.7 7.5 -3 3.2-5.3 7-6.9 11.5 -1.6 4.5-2.4 9.3-2.4 14.4 0 5.4 0.8 10.3 2.5 14.8 1.7 4.5 4 8.4 6.9 11.6 3 3.2 6.5 5.8 10.6 7.6 4.1 1.8 8.7 2.8 13.7 2.8 5 0 9.6-0.9 13.7-2.8 4.1-1.8 7.7-4.4 10.7-7.6 3-3.2 5.4-7.1 7-11.6 1.7-4.5 2.5-9.5 2.5-14.8ZM347.4 121.8l-47.7-77.6 -0.5 0 0.7 77.6 -27.8 0 0-118.6 32.6 0 47.5 77.4 0.5 0 -0.7-77.4 27.8 0 0 118.6 -32.5 0ZM404.3 121.8l0-118.6 79.7 0 0 24.3 -52.1 0 0 22.3 49.2 0 0 23 -49.2 0 0 24.6 55.1 0 0 24.5 -82.7 0Z" fill="#000"/></svg>