<svg xmlns="http://www.w3.org/2000/svg" version="1.1" x="0" y="0" width="612" height="612" viewBox="0 0 612 612"><path d="M342.98 612h-73.97c-14.77 0-27.01-11.07-28.47-25.75l-7.58-45.45c-14.25-4.43-28.09-10.18-41.32-17.14l-38.06 27.18c-4.55 3.77-10.98 6.08-17.58 6.08 -7.65 0-14.82-2.98-20.24-8.39l-52.3-52.3c-10.45-10.45-11.25-26.93-1.9-38.36l26.78-37.51c-6.98-13.25-12.72-27.1-17.14-41.31l-46.11-7.69C11.08 370.01 0 357.78 0 342.98v-73.96c0-14.77 11.07-27.01 25.75-28.48l45.45-7.6c4.44-14.27 10.19-28.11 17.13-41.3l-27.17-38.06C52.19 142.7 53 126.22 63.46 115.78l52.31-52.32c10.08-10.06 27.35-10.9 38.33-1.92l37.56 26.79c13.18-6.95 27.02-12.69 41.3-17.13l7.68-46.1C242 11.07 254.24 0 269.02 0h73.97c14.76 0 26.99 11.06 28.48 25.73l7.6 45.47c14.26 4.44 28.1 10.18 41.29 17.13l38.07-27.18c4.54-3.76 10.97-6.06 17.57-6.06 7.65 0 14.83 2.97 20.23 8.37l52.3 52.32c10.44 10.41 11.28 26.88 1.94 38.32l-26.79 37.54c6.96 13.19 12.69 27.03 17.13 41.3l46.11 7.7C600.94 242.01 612 254.24 612 269.02v73.96c0 14.8-11.07 27.02-25.77 28.45l-45.43 7.6c-4.44 14.28-10.18 28.13-17.13 41.32l27.18 38.06c8.95 10.91 8.11 27.41-2.35 37.82l-52.29 52.29c-10.04 10.05-27.34 10.94-38.36 1.91l-37.51-26.77c-13.23 6.97-27.07 12.72-41.29 17.14l-7.71 46.12C369.98 600.93 357.75 612 342.98 612zM190.91 501.64c1.7 0 3.41 0.42 4.95 1.29 15.41 8.64 31.81 15.44 48.79 20.25 3.76 1.06 6.57 4.21 7.22 8.07l8.71 52.34c0.51 4.87 4.18 8.18 8.43 8.18h73.97c4.26 0 7.92-3.3 8.33-7.51l8.83-53.01c0.64-3.85 3.46-7 7.22-8.06 16.94-4.79 33.34-11.6 48.76-20.25 3.41-1.92 7.64-1.69 10.82 0.6l43.19 30.85c4.36 3.51 8.8 2.78 11.75-0.16l52.31-52.31c3.07-3.06 3.32-7.89 0.59-11.23l-31.27-43.72c-2.29-3.19-2.51-7.4-0.6-10.83 8.64-15.35 15.43-31.75 20.23-48.76 1.06-3.77 4.21-6.58 8.08-7.23l52.35-8.73c4.88-0.51 8.18-4.16 8.18-8.41v-73.96c0-4.26-3.3-7.93-7.51-8.34l-53.01-8.82c-3.87-0.65-7.01-3.46-8.08-7.23 -4.79-17.01-11.6-33.41-20.23-48.74 -1.91-3.43-1.69-7.65 0.6-10.83l30.87-43.21c3.13-3.86 2.87-8.68-0.18-11.73L481.91 77.8c-2.94-2.94-8.01-3.19-11.2-0.58l-43.75 31.28c-3.19 2.29-7.41 2.51-10.82 0.6 -15.36-8.63-31.76-15.43-48.76-20.25 -3.76-1.05-6.57-4.21-7.22-8.07l-8.72-52.34c-0.54-4.98-4.13-8.21-8.45-8.21h-73.97c-4.34 0-7.92 3.23-8.34 7.51l-8.8 53c-0.64 3.86-3.46 7.01-7.22 8.07 -17.03 4.82-33.43 11.62-48.75 20.25 -3.44 1.91-7.65 1.69-10.83-0.6l-43.23-30.87c-4.35-3.48-8.81-2.78-11.75 0.18L77.77 130.08c-3.05 3.05-3.29 7.87-0.56 11.2l31.26 43.76c2.29 3.2 2.51 7.41 0.6 10.83 -8.62 15.33-15.42 31.73-20.25 48.75 -1.05 3.76-4.21 6.57-8.07 7.22l-52.34 8.73c-4.96 0.53-8.18 4.12-8.18 8.46v73.96c0 4.33 3.22 7.91 7.49 8.32l53.02 8.82c3.86 0.64 7.01 3.46 8.07 7.23 4.78 16.92 11.59 33.33 20.25 48.78 1.91 3.42 1.69 7.63-0.6 10.81L77.61 470.14c-3.15 3.88-2.91 8.7 0.15 11.76l52.31 52.3c2.97 2.96 8.02 3.23 11.21 0.58l43.75-31.26C186.78 502.28 188.84 501.64 190.91 501.64zM306.01 427.05c-66.76 0-121.08-54.3-121.08-121.06 0-66.76 54.32-121.08 121.08-121.08 66.77 0 121.07 54.32 121.07 121.08C427.07 372.73 372.76 427.05 306.01 427.05zM306.01 205.14c-55.61 0-100.85 45.25-100.85 100.85 0 55.6 45.24 100.83 100.85 100.83 55.6 0 100.84-45.23 100.84-100.83C406.84 250.38 361.61 205.14 306.01 205.14z"/></svg>